<svg xmlns="http://www.w3.org/2000/svg" viewBox="0 0 93 43" focusable="false" aria-hidden="true" class="css-1ni5et6"><g clip-path="url(#a)"><path d="M49.792 36.19c-.175-1.478-1.494-2.275-2.82-2.275-2.21 0-3.312 1.743-3.312 3.662 0 1.919 1.12 3.662 3.313 3.662 1.643 0 2.733-1.104 2.92-2.824h-.669c-.126 1.249-.952 2.244-2.24 2.244-1.867 0-2.644-1.56-2.644-3.093 0-1.534.788-3.094 2.644-3.094a2.12 2.12 0 0 1 2.15 1.706l.658.011Zm4.25 2.931c0 .995-.825 1.594-1.77 1.594a1.055 1.055 0 0 1-1.12-1.003c0-.995 1.307-.983 2.36-1.17.168-.03.44-.079.519-.228h.022l-.011.807Zm-2.685-1.556c0-.826.59-1.181 1.355-1.181.766 0 1.33.21 1.33 1.043 0 .561-.288.632-.8.692-1.336.157-2.722.206-2.722 1.635 0 1.02.77 1.496 1.703 1.496a1.935 1.935 0 0 0 1.867-1.033c0 .532.098.887.747.887.135.002.269-.011.4-.041v-.52a.578.578 0 0 1-.194.037.328.328 0 0 1-.374-.374V37.51c0-1.357-.974-1.634-1.867-1.634-1.158 0-1.994.512-2.054 1.702l.609-.011Zm4.534 3.531h.62V38.13c.018-.995.608-1.743 1.59-1.743.983 0 1.289.662 1.289 1.538v3.171h.616v-3.269c0-1.212-.43-1.96-1.867-1.96a1.712 1.712 0 0 0-1.621 1.025h-.019v-.882h-.62l.012 5.086Zm8.53-1.97c0 .994-.826 1.593-1.767 1.593a1.052 1.052 0 0 1-1.12-1.003c0-.995 1.306-.983 2.356-1.17.168-.03.444-.08.523-.229h.018l-.01.808Zm-2.682-1.557c.018-.826.59-1.182 1.355-1.182.766 0 1.326.21 1.326 1.044 0 .56-.284.632-.795.692-1.337.157-2.723.206-2.723 1.634 0 1.021.77 1.496 1.7 1.496a1.931 1.931 0 0 0 1.848-1.032h.019c0 .531.1.887.728.887.135.002.27-.012.403-.042v-.52a.597.597 0 0 1-.194.038.332.332 0 0 1-.374-.374v-2.697c0-1.357-.974-1.634-1.867-1.634-1.161 0-1.994.512-2.054 1.702l.628-.012Zm4.944.988c0-1.055.478-2.17 1.662-2.17 1.314 0 1.778 1.122 1.778 2.17 0 1.047-.464 2.165-1.778 2.165-1.184 0-1.662-1.122-1.662-2.162v-.003Zm4.06-4.485h-.62v2.91h-.02a1.817 1.817 0 0 0-1.758-1.122c-1.546 0-2.282 1.25-2.282 2.69s.747 2.685 2.282 2.685a2.006 2.006 0 0 0 1.808-1.122v.983h.57l.02-7.024Zm4.421 5.06c0 .996-.825 1.594-1.766 1.594a1.053 1.053 0 0 1-1.12-1.002c0-.995 1.306-.984 2.36-1.171.164-.03.44-.079.519-.228h.018l-.01.808Zm-2.681-1.555c.018-.827.586-1.182 1.355-1.182.77 0 1.326.21 1.326 1.043 0 .561-.284.633-.795.692-1.337.157-2.723.206-2.723 1.635 0 1.02.747 1.496 1.7 1.496a1.932 1.932 0 0 0 1.867-1.032h.022c0 .53.097.886.725.886.135.003.27-.011.403-.041v-.52a.6.6 0 0 1-.198.037.328.328 0 0 1-.374-.374v-2.696c0-1.358-.97-1.635-1.867-1.635-1.161 0-1.994.513-2.054 1.702l.613-.011Z" fill="#6A747B"></path><path d="M86.43 41.234v-.83c0-.06-.059-.1-.137-.1l-1.293.28c.117-.153.192-.333.217-.524a.404.404 0 0 0-.157-.28l-1.154-.928.198-.082a.135.135 0 0 0 .101-.143l-.198-.864.676.139c.06 0 .097-.06.138-.139l.18-.302.575.665a.12.12 0 0 0 .1.06c.06 0 .097-.06.097-.142l-.317-1.451.34.18c.063.038.13.072.198.1.037 0 .06 0 .1-.1l.438-.786.418.785c.037.083.078.101.116.101.062-.028.122-.062.179-.1l.34-.18-.3 1.47a.114.114 0 0 0 .026.082.11.11 0 0 0 .076.041.113.113 0 0 0 .097-.06l.556-.665.198.302c.06.098.082.139.142.139l.654-.139-.198.864a.18.18 0 0 0 .1.143l.217.082-1.172.927a.453.453 0 0 0-.157.3c0 .104.037.202.216.505l-1.27-.28c-.082 0-.16.04-.16.1v.83h-.18ZM92.126 36.013h-2.442v5.218h2.442v-5.218ZM83.31 36.013h-2.443v5.218h2.442v-5.218Z" fill="#C10230" id="flag"></path><path d="M23.461 29.875a44.643 44.643 0 0 1-5.075-2.244 36.296 36.296 0 0 0 4.362-1.937c.14 1.409.378 2.806.713 4.181Zm13.07 2.495c-.055-.116-.373.045-.705 0-.934-.138-2.159-1.414-2.532-3.512-.669-3.778-.273-7.503.836-13.057.21-1.051.927-2.873-1.351-3.224-.725-.109-.348.246-.553 1.208-.863 4.122-4.25 7.114-7.633 9.107-.374-4.735-.21-9.994.68-13.218.746-2.723 1.646-2.222.537-2.794-1.165-.602-2.42.195-3.432 2.222s-5.684 13.031-13.142 20.46c-3.816 3.8-7.267 1.843-7.958 1.26-.564-.48-.773.254-.074 1.01 3.088 3.332 7.596 1.42 9.239-.225 4.537-4.544 9.81-14.321 11.95-18.473a64.424 64.424 0 0 0 .172 10.847 31.556 31.556 0 0 1-5.356 2.046c-1.06.276-1.714.706-1.732 1.2-.019.494.687.991 1.714 1.478 1.83.867 7.181 3.403 8.503 4.17 1.12.658 1.68.142 2.013-.565.437-.924-.747-1.455-1.923-1.803a36.184 36.184 0 0 1-1.038-5.954c2.718-1.676 5.4-3.912 6.942-6.703-.373 2.334-1.385 10.267 1.12 13.622.55.748 1.767 1.549 2.954 1.43.56-.057.844-.424.788-.54" fill="#6A747B"></path><path d="M41.309 28.005c-.879.088-1.809.169-2.79.243.374-2.797 1.823-6.684 3.634-6.059 1.042.374.493 3.636-.844 5.816Zm-2.297 1.927c-.26.042-.524.042-.784 0a.592.592 0 0 0 .205-.43v-.375a44.782 44.782 0 0 0 2.174-.168c-.406.5-.97.847-1.599.984l.004-.012Zm11.155-6.64c1.154-1.073 1.73-.998 1.867-.706.329.62-1.03 2.82-3.633 4.024a6.284 6.284 0 0 1 1.755-3.317h.011Zm42.812 1.066c-.108-2.176-2.032-2.528-2.297-1.91-.093.216.721.138.725 1.675 0 2.54-2.57 5.857-5.848 5.857-3.574 0-4.482-2.783-4.668-4.16-.113-.915.085-2.243-1.494-2.06-1.12.123-2.103 2.278-3.503 4.092-1.203 1.556-1.74 1.406-1.46.071.347-1.676 1.744-5.61 3.338-5.891.747-.13 1.001 1.167 1.345.374.343-.793.026-2.573-1.629-2.573-1.153 0-2.543 1.227-3.682 2.618-.99 1.22-6.008 8.602-8.111 7.013-.982-.748-.9-3.781-.284-7.365 2.495-.96 4.571-.647 5.748-.082.578.277.657.236.41-.4-.373-.939-2.371-2.405-5.508-1.732l-.224.052c.042-.363.121-.721.235-1.07.291-1.054 1.154-2.872-1.094-3.223-.717-.113-.41.235-.65 1.204a40.688 40.688 0 0 0-.747 4.013 13.083 13.083 0 0 0-4.832 5.192c.22-1.081.56-2.274.582-3.082a1 1 0 0 0-.784-1.104c-.493-.142-1.09.105-1.68.935-1.375 1.945-3.122 5.02-5.774 6.314-1.897.924-2.734 0-2.782-1.444.34-.102.673-.227.997-.374 3.443-1.53 4.627-3.837 3.753-5.236-.829-1.335-3.204-.928-5.082 1.051a7.067 7.067 0 0 0-1.718 4.178c-.796.172-1.71.325-2.734.46 1.62-2.618 1.494-6.187-.885-6.785-2.748-.692-4.138 1.979-4.724 4.2.18-2.221.235-4.406.747-6.92.209-1.05.926-2.872-1.352-3.22-.724-.112-.613.225-.553 1.205.082 1.316-1.072 8.767-.313 12.268-.979.318-1.375 1.055-.116 1.833.866.538 2.782.718 4.713-.236a5.95 5.95 0 0 0 1.792-1.391c1.15-.146 2.36-.333 3.462-.554.187 1.537 1.188 2.712 3.51 2.495 3.302-.307 6.237-4.369 7.343-6.325-.198 2.098-1.562 6.68.746 6.445.912-.094.516-.24.572-1.029.201-2.76 2.498-5.102 4.765-6.534-.392 3.366-.258 6.4 1.277 7.36 2.816 1.762 6.808-2.883 9.004-5.722-1.12 2.52-1.752 5.756-.075 6.246 1.972.58 3.526-2.693 5.34-5.199.213 1.796 1.408 4.896 6.237 4.896 4.896 0 8.13-3.123 7.958-6.43M38.954.791c-.96.176-1.867.3-2.524.374l-.374.052c-.266.071-.549.056-.806-.045h-.03a.272.272 0 0 0-.228 0c-.078.06-.18.34-.067 1.025.112.685.885.748 1.214.77.806.05 6.722-.863 6.774-.87l1.016-.113a51.15 51.15 0 0 1 6.274-.292c2.24.143 2.651.408 3.383.887l.06.033c.085.06.18.104.28.131h.026a1.09 1.09 0 0 0-.116-.647C53.265.881 51.75.226 49.056.07c-3.843-.24-8.682.509-10.083.748" fill="#6A747B"></path><path d="M43.151 2.717a1.298 1.298 0 0 1 1.095.569.954.954 0 0 1 .12.553v.056c-.017.13-.052.256-.105.374-.747 1.56-1.36 4.145-1.636 6.733-.045.434-.082.871-.112 1.298-.112 1.896.026 3.261.392 3.845.189.303.444.559.747.748h-.03c-1.37.063-2.196-.692-2.614-2.379a11.782 11.782 0 0 1-.16-3.31c.03-.456.07-.917.115-1.369.237-2.032.611-4.045 1.12-6.026.116-.59-.209-.624-.063-.796.146-.172.493-.344 1.12-.303M70.425 6.514c.34.61.127.785-.187.688-1.012-.322-2.827 1.122-4.141 3.093a37.684 37.684 0 0 0-3.22 5.958 1.055 1.055 0 0 1-1.026.842 1.119 1.119 0 0 1-1.173-1.017 15.61 15.61 0 0 0-1.214-4.354l-.078.022a7.397 7.397 0 0 1-1.614 4.01 2.43 2.43 0 0 1-1.616.916 1.414 1.414 0 0 1-1.076-.348c-.568-.505-.87-1.537-.907-3.07v-.15l-.075.131c-1.307 2.274-2.525 4.114-4.209 3.568a1.12 1.12 0 0 1-.698-.643c-.523-1.122.078-3.288.747-4.791 1.31-2.925 2.494-3.262 3.36-3.228a1.466 1.466 0 0 1 1.237.654 1.722 1.722 0 0 1 .142 1.53c-.071.153-.116.18-.135.18-.019 0-.12-.105-.19-.21a1.122 1.122 0 0 0-.87-.617c-1.408-.052-2.428 2.734-2.738 4.507-.1.569 0 .969.232 1.073.231.105.702-.168 1.176-.807.374-.513.717-1.063 1.012-1.549.635-1.032 1.12-1.851 1.666-1.74.635.135.747.495.821 1.845.075 1.35.43 2.244.878 2.244.31 0 .646-.277.96-.79.747-1.23 1.426-3.74.78-4.862-.455-.523-.926-.841-1.255-.845-.145 0-.25-.041-.269-.097-.018-.056 0-.135.333-.333a2.175 2.175 0 0 1 2.039-.075c1.023.479 2.427 2.304 3.07 6.647h.082c2.095-5.042 4.32-7.78 4.978-8.345 1.165-1.122 2.49-1.073 3.156-.037" fill="#6A747B"></path><path d="M55.198 6.828c-.422-.961-1.93-2.244-4.194-1.59-1.96.565-3.402 2.585-4.593 7.006l.194-1.545c.143-.696.225-1.403.246-2.113a.973.973 0 0 0-1.033-1.027.97.97 0 0 0-.509.185 1.122 1.122 0 0 0-.347.943l.026.714c.014.184.014.37 0 .554 0 .437-.075.987-.138 1.567-.187 1.698-.419 3.811.302 4.544a.963.963 0 0 0 .83.259c.1 0 .403-.038.455-.105a.4.4 0 0 0 0-.206 2.023 2.023 0 0 1-.03-.617c.407-3.957 2.457-7.608 4.881-8.685A3.673 3.673 0 0 1 55 7.086c.108.09.236.154.373.187a1.28 1.28 0 0 0-.138-.441M71.025 9.813c1.068-.902 1.572-.805 1.696-.539.261.572-1.039 2.469-3.391 3.411.259-1.108.85-2.11 1.695-2.872Zm9.949 5.984c-.038-.03-.131-.03-.28.075a1.892 1.892 0 0 1-2.024.28c-1.188-.632-.942-3.635-.695-5.367.16-1.51.44-3.007.837-4.473l.085-.273c.146-.46.333-1.029.053-1.437-.206-.303-.628-.482-1.293-.55-.205-.022-.317 0-.373.03-.056.03-.056.139-.063.281-.001.182-.021.364-.06.542-.206.868-.344 2.11-.609 3.74-.515 2.17-2.554 5.368-4.956 6.389-1.721.73-2.42-.142-2.397-1.425.304-.072.603-.162.896-.27 3.115-1.196 4.261-3.197 3.548-4.488-.676-1.23-2.797-.987-4.541.685a6.298 6.298 0 0 0-1.703 3.643c-.374.067-1.42.034-1.438.355-.019.322 1.083.49 1.423.419.1 1.377.934 2.476 2.988 2.398 2.744-.105 4.507-2.787 5.706-4.567-.336 1.937.12 4.458 1.576 5.098a2.61 2.61 0 0 0 3.309-1.025.063.063 0 0 0 0-.082" fill="#6A747B"></path></g><defs><clipPath id="a"><path fill="#fff" transform="translate(0 .002)" d="M0 0h93v42H0z"></path></clipPath></defs></svg>