<svg xmlns="http://www.w3.org/2000/svg"  viewBox="0 0 22.39 24" focusable="false" aria-hidden="true" class="sub_header_item_link-image"><path   fill-rule="evenodd" d="M7.12 1a1 1 0 1 0-2 0v2.57h-2A3.07 3.07 0 0 0 0 6.64v14.3A3.06 3.06 0 0 0 3.05 24h16.29a3.06 3.06 0 0 0 3.05-3.06V6.64a3.07 3.07 0 0 0-3.05-3.07h-2V1a1 1 0 1 0-2 0v2.57H7.12Zm9.16 7.66a1 1 0 0 1-1-1v-2H7.12v2a1 1 0 1 1-2 0v-2h-2a1 1 0 0 0-1 1V9.7h18.23V6.64a1 1 0 0 0-1-1h-2v2a1 1 0 0 1-1.07 1.04Zm4.07 3.06H2v9.2a1 1 0 0 0 1 1h16.34a1 1 0 0 0 1-1Z"></path></svg>