<svg xmlns="http://www.w3.org/2000/svg" viewBox="0 0 144 19" focusable="false" aria-hidden="true" class="css-1po8bst"><path d="M9.9 13.392c0-.633.27-.723.9-.361 1.08.633 2.16 1.176 2.16 1.176 0-.362.36-.634.99-.453s1.26.272 1.26.272-.36-.815-.54-1.176c-.27-.634 0-.996.27-1.086 0 0-.36-.272-.63-.452-.54-.362-.45-.815.09-.996.72-.362 1.71-.724 1.71-.724-.27-.18-.63-.633-.27-1.266.36-.543.99-1.357.99-1.357h-1.71c-.63 0-.81-.543-.81-.905 0 0-.99.724-1.71 1.176-.63.452-1.17 0-1.08-.724.18-1.085.27-2.352.27-2.352-.36.362-.99.271-1.35-.272-.45-.904-.9-1.99-.9-1.99s-.45 1.086-.9 1.99c-.27.543-.9.634-1.26.362 0 0 .09 1.267.27 2.353.09.633-.45 1.085-1.08.633-.72-.452-1.8-1.176-1.8-1.176 0 .362-.18.814-.81.905H2.25s.63.814.99 1.357 0 1.085-.27 1.266c0 0 .9.453 1.71.724.54.272.72.634.09.995-.18.181-.63.453-.63.453.36.09.63.452.36 1.086-.18.361-.54 1.176-.54 1.176s.63-.181 1.26-.272c.63-.18.9.181.99.453 0 0 1.08-.634 2.16-1.177.54-.361.9-.18.9.362v1.539c0 .904-.18 1.809-.45 2.352-4.05-.453-7.47-3.71-7.47-8.052 0-4.434 3.69-8.053 8.28-8.053s8.28 3.62 8.28 8.053c0 4.161-3.24 7.6-7.38 8.052v1.086c4.86-.453 8.64-4.343 8.64-9.138 0-5.158-4.32-9.229-9.63-9.229C4.32.002 0 4.073 0 9.14c0 4.433 3.33 8.143 7.74 8.957.72.181 1.17.272 1.62.724.45-.905.54-2.714.54-3.71v-1.719Z" fill="#F01428"></path><path d="M48.512 14.026V4.254h4.77c2.52 0 3.69 1.086 3.78 2.443 0 .634-.09 1.267-.54 1.72-.45.452-.63.633-1.44 1.085l3.6 4.614h-2.61l-3.24-4.162h-2.16v4.072h-2.16Zm2.16-5.338h.99c2.61 0 3.15-.453 3.15-1.72 0-1.266-1.17-1.447-2.88-1.447h-1.26v3.167ZM27.18 14.026l4.23-9.772h2.61l4.23 9.772h-2.61l-1.17-2.624h-4.5l-1.17 2.624h-1.62Zm3.33-3.89h3.33l-1.71-3.891-1.62 3.89ZM43.469 4.254h-2.25v9.772h2.25V4.254ZM74.88 13.664c-1.08.452-2.43.633-4.05.633-1.89 0-3.42-.452-4.5-1.357s-1.62-2.171-1.62-3.8.54-2.986 1.62-3.8c1.08-.905 2.61-1.357 4.68-1.357 1.26 0 2.52.09 3.87.362v1.628c-1.44-.452-2.79-.633-3.78-.633-1.26 0-2.16.362-2.88.995-.63.634-.99 1.629-.99 2.805 0 1.176.36 2.081 1.08 2.805.72.633 1.71.995 2.97.995 1.17 0 2.43-.271 3.6-.724v1.448ZM77.672 14.026l4.23-9.772h2.61l4.23 9.772h-2.61l-1.17-2.624h-4.5l-1.17 2.624h-1.62Zm3.42-3.89h3.33l-1.62-3.891-1.71 3.89ZM105.84 14.026l4.23-9.772h2.61l4.23 9.772h-2.61l-1.17-2.624h-4.5l-1.17 2.624h-1.62Zm3.33-3.89h3.33l-1.71-3.891-1.62 3.89ZM137.52 6.245l1.71 3.89h-3.33l1.62-3.89Zm-.72-1.99-4.23 9.77h1.62l1.17-2.623h4.5l1.17 2.624h2.61l-4.23-9.772h-2.61ZM91.98 14.026V4.254h2.61l6.12 6.967V4.254h1.89v9.772h-2.43l-6.3-7.329v7.329h-1.89ZM120.059 14.026V4.254h4.68c1.71 0 2.97.453 3.87 1.177.9.814 1.35 1.99 1.35 3.438 0 1.628-.45 2.895-1.44 3.71-.99.904-2.25 1.356-3.96 1.356h-4.5v.09Zm2.25-1.357h1.71c1.17 0 2.07-.272 2.7-.905.63-.633.9-1.448.9-2.714 0-.905-.27-1.72-.72-2.353-.36-.452-.72-.724-1.17-.905-.45-.18-1.08-.27-1.98-.27h-1.35v7.147h-.09Z" fill="#000"></path></svg>