<svg  xmlns="http://www.w3.org/2000/svg" viewBox="0 0 31 36" focusable="false" aria-hidden="true">
<path d="M23.38 22.33c-2.94-.47-2.54 5.67-.61 6.2 0 0 1.36.73 2-1.22a.16.16 0 00-.09-.2l-.33-.11a.15.15 0 00-.2.08c-.12.29-.39.63-1.08.33s-.58-1.46-.5-1.88a.16.16 0 01.21-.12l2.34.91a.16.16 0 00.21-.12c.15-.76.53-3.48-1.95-3.87zm1 2.65l-1.54-.62a.19.19 0 01-.08-.26c.15-.28.49-.77 1.05-.47a1.42 1.42 0 01.81 1.15.18.18 0 01-.25.22z"></path><path d="M22.88 20.9a.14.14 0 00.13-.19 9.91 9.91 0 00-1.27-2 .13.13 0 00-.23.08c0 .56-.39 1.3-2.07 1.66-.1 0-.29-.09-.27-.18l.2-1.27a1.52 1.52 0 011.3-1.07.13.13 0 00.06-.23 8.08 8.08 0 00-2.5-1.57.13.13 0 00-.17.17 1.43 1.43 0 01.07 1c-.09.53-.37 2-.85 3.9s-1.23 2.2-1.57 2.25a.13.13 0 00-.1.19 2.77 2.77 0 001.08 1.19.13.13 0 00.21-.08 9.54 9.54 0 011.1-2.17c.29-.52.49.16.49.16.44 3.38 1 4.06 1.21 4.49a.14.14 0 00.12.07 2.67 2.67 0 01.4 0 .13.13 0 00.13-.17c-.67-2.13-.8-3.23 0-4.88a2.52 2.52 0 012.53-1.35zM7.4 15.65c1.19 1.15-.34 4-.81 4.79a.14.14 0 00.12.22 15.76 15.76 0 015.46 1.49.14.14 0 00.19 0l.86-1.57a.14.14 0 00-.06-.21l-.16-.11a.14.14 0 00-.18.06c-.14.22-.74.6-1.85.3a2.46 2.46 0 01-1.44-3.26 3.39 3.39 0 011.09-1.45 5.12 5.12 0 011.1-.59.15.15 0 00-.06-.29 17 17 0 00-4.21.37.15.15 0 00-.05.25zM7 24.08a.15.15 0 00-.07-.21h-.12a.14.14 0 00-.15 0 1.46 1.46 0 01-1.76.55.15.15 0 010-.24 8.67 8.67 0 014.59-1.71.14.14 0 000-.27 8 8 0 00-3-.54.14.14 0 00-.11.22c.21.25-.31.5-.31.5l-1.8.8a2.48 2.48 0 01-2 .09.14.14 0 00-.18.19 4.48 4.48 0 002.19 2.27 6.53 6.53 0 011.84 1.08.13.13 0 00.22-.13 3.71 3.71 0 01.66-2.6zM12.8 32.26c.9-.33 3.08-5 3.08-5a2.12 2.12 0 01.46-.59.15.15 0 000-.23 6.77 6.77 0 01-.89-.9.15.15 0 00-.27.07 6.77 6.77 0 01-.39 1.09 19.19 19.19 0 01-1.24 2.6c-1 1.79-1.38 1.75-1.61 1.61s-.21-.51.6-1.72a25.8 25.8 0 001.65-3.53 1.45 1.45 0 01.59-.69.15.15 0 000-.24 6.32 6.32 0 00-2.18-1.37.16.16 0 00-.2.21 3.92 3.92 0 01.08 2.77 6.9 6.9 0 01-2 3.28c-.48.45-.53 1.09.41 2.16a1.66 1.66 0 001.91.48zM17.6 29.77a3.2 3.2 0 011.4-1.25.14.14 0 000-.25 7.32 7.32 0 01-1.59-.93.13.13 0 00-.21.06 23.23 23.23 0 01-1.08 2.52 8.91 8.91 0 01-2.21 3.16.14.14 0 000 .23c1.1.55 1.49.21 1.83 0 .09-.07.09-.33.06-.44a14.78 14.78 0 011.8-3.1z"></path><path d="M23.81 30.44a3.84 3.84 0 00-3.61-1c-1.78.37-2.87 3.46-2.91 3.58a2.27 2.27 0 01-3.52 1.12.12.12 0 00-.18.07l-.08.23a.16.16 0 000 .13 5.2 5.2 0 002.42 1 2.32 2.32 0 002.55-1.61c2-4.91 4.46-3.45 5-3a.13.13 0 00.2-.06l.09-.26a.12.12 0 00.04-.2zM10.45 23.32c-.92-.34-2.1.51-2.62 1.91s-.19 2.82.74 3.17 2.1-.51 2.62-1.91.19-2.82-.74-3.17zm-.33 2.79c-.28.89-.79 1.46-1.12 1.34s-.39-.9-.1-1.76.8-1.46 1.14-1.34.37.9.08 1.76z"></path><path d="M23.64 31.88a1.59 1.59 0 00-1.17-.36 2.78 2.78 0 00-1.66.81c-.09.09-.19.19-.28.3-.87 1.06-1 2.38-.36 2.94a1.81 1.81 0 002.65-.38 2 2 0 00.26-.43.16.16 0 00-.15-.23h-.22a.15.15 0 00-.13.07 1.24 1.24 0 01-1.34.43c-.63-.2-.24-1-.07-1.23a.19.19 0 01.13-.07h2.27a.14.14 0 00.14-.09 1.93 1.93 0 00-.07-1.76zm-.71 1.28H21.6c-.2 0-.28-.28-.12-.43a1.48 1.48 0 011.06-.46c.65 0 .68.42.64.69a.26.26 0 01-.25.2zM2.92 21.27a.14.14 0 01.22.07.34.34 0 00.41.26s1.08-.37 1.22-.43.07-.11.07-.11-.63-.13-.61-.62a5.08 5.08 0 001.06-1.37 4.91 4.91 0 00.63-1.37.14.14 0 00-.21-.15.76.76 0 01-.49.09.62.62 0 00-.34.07c-.07.09-.33.43-.22.68a.44.44 0 010 .45 1.75 1.75 0 01-.43.51.15.15 0 01-.23-.09l-.29-1.72h.08c1.84-.35 2.25-1.15 2.34-1.35A1 1 0 004.74 15a1.89 1.89 0 00-1.29 1.53.13.13 0 01-.14.11 2.89 2.89 0 00-2.07.9c-2 2.54-.15 3.8 0 3.88a1.49 1.49 0 001.68-.15zm2.16-5.64s.43 0 .2.46v.05a2.51 2.51 0 01-.84.5.2.2 0 01-.26-.26 1.11 1.11 0 01.9-.75zm-2.15 4.49a1 1 0 01-.36.15.87.87 0 01-1.12-.82c-.09-1 1-1.55 1.11-1.61h.09L3 20a.12.12 0 01-.07.12zM2.12 12.72a3 3 0 003.55-.5c.6-.76.07-1.15-.18-1.46s-.27-.56 0-1.35a1.91 1.91 0 000-1.34c-.11-.11-.74-.68-2.32-.23-1.84.46-1.67 2.91-1.67 2.91s.04 1.58.62 1.97zm2-1.65c.13 0 .73.07.67.48s-1 .68-1.76 0a.17.17 0 01.1-.29l.94-.15zm.35-2c.24.48-.33.82-.44.89H4l-.86.25a.2.2 0 01-.27-.21c.13-.87 1.36-1.41 1.6-.92zM9.57 11.54a.19.19 0 00.2-.22c0-.29 0-.75.54-.67s.87.19.74.68c-.05.16.34.34.49.26a1.56 1.56 0 00.62-.9c.66-3.16-1.16-4-1.35-4.08-.2 0-2-.37-2.62 2.73-.48 2.01.73 2.18 1.38 2.2zM10.7 8c.29.18.38 1 .4 1.44a.25.25 0 01-.3.26l-.71-.08a.28.28 0 01-.24-.36c.15-.5.56-1.43.85-1.26zM15.72 12a.22.22 0 00.34-.21 2.77 2.77 0 01.11-1 .23.23 0 01.44 0 3.8 3.8 0 00.86 1.72.19.19 0 00.13 0c.3 0 1.53-.28 1.84-2.29a2.67 2.67 0 00-.7-2.6.22.22 0 00-.37.16c0 .21-.09 1.08-.12 1.31s-.43.27-.53.08c-.3-.56-.43-1.61-.89-1.9a.26.26 0 00-.28 0 3.35 3.35 0 00-1.65 2.52c-.02 1.56.42 1.95.82 2.21zM21.37 14.67l.74.72a.26.26 0 00.3 0 .66.66 0 00.28-.67c0-.59.42-.64.7-.4 0 0 1 1 1.43.55s-.82-1.59-.93-1.84.16-.67.66-.2.87.5 1 .42a.23.23 0 00.1-.12 2 2 0 00-.44-1.89 1.9 1.9 0 00-1.84-.61 3.59 3.59 0 00-2.15 2.2c-.32 1.46.07 1.79.15 1.84zM30.43 17.28c.21-1.39-1.38-1.78-1.38-1.78s-1.72-.65-3.08 1.42a2.24 2.24 0 00.52 3.28.24.24 0 00.11.06c.2 0 .65.11.63-.3a.78.78 0 01.21-.65c.15-.13.31-.25.48-.16.44.23 1.14.56 1.39.19s-.22-.63-.34-.68c-.17 0-1.3-.44-.84-.95s1.35 0 1.37 0c.22.1.78.53.93-.43zM3.91 6.18c.51 0 .57-.36.57-.36a6.29 6.29 0 00-.32-3.16 19.36 19.36 0 01-.4 3.28.21.21 0 00.15.24zM10.44 4.81a.83.83 0 00.39.17.44.44 0 00.54-.43A18.28 18.28 0 0010.92 0h-.05c-.07.92-.48 3.75-.58 4.47a.33.33 0 00.15.34zM17.53 5.32s-.14.34.35.48.66-.25.66-.25.52-4-.26-5.15h-.09a17.73 17.73 0 01-.66 4.92zM24.49 8.77s-.27.38.38.57.67-.31.67-.31.65-3.95 0-5a.06.06 0 00-.1 0 21.7 21.7 0 01-.95 4.74zM29.42 13.46a.48.48 0 10.9.32s.62-3.52.29-4.76h-.08a28.72 28.72 0 01-1.11 4.44zM15.61 21.65a1 1 0 01-.19-.84l1.48-5.37a.12.12 0 00-.08-.15h-.11a4.2 4.2 0 00-5 2.25.14.14 0 01-.16.07l-.48-.19c-.09 0-.12 0-.12.05a1.86 1.86 0 00.15 1.84 1.31 1.31 0 001.34.4c.09 0 .13-.17.13-.17l.12-.63a6.43 6.43 0 011.89.71.13.13 0 01.05.17l-1.19 2.16a.12.12 0 000 .15 2.83 2.83 0 00.59.39 1.45 1.45 0 001.55-.65.14.14 0 00.03-.19zm-.42-3.53a.13.13 0 01-.19.07 7.77 7.77 0 00-1.45-.53.12.12 0 01-.07-.2 2.54 2.54 0 012.11-1.08.14.14 0 01.13.17zM17.52 26a1.45 1.45 0 00.79.72c.54.19-.18-2-.3-2.37v-.08c-.14-.2-.39.88-.52 1.18a.52.52 0 00.03.55z"></path>
</svg>