<svg xmlns="http://www.w3.org/2000/svg" xmlns:xlink="http://www.w3.org/1999/xlink" version="1.1" id="Layer_1" x="0px" y="0px" viewBox="0 0 288 320.2" style="enable-background:new 0 0 288 320.2;" xml:space="preserve" class="mdl-js">
<style type="text/css">
	.st0{clip-path:url(#SVGID_2_);fill:none;stroke:#FDD800;stroke-width:35;}
	.st1{clip-path:url(#SVGID_2_);fill:#DF7F1B;}
	.st2{clip-path:url(#SVGID_4_);fill:#4DC4CF;}
	.st3{clip-path:url(#SVGID_4_);fill:#FFCB05;}
	.st4{clip-path:url(#SVGID_4_);fill:#FFFFFF;}
	.st5{clip-path:url(#SVGID_4_);}
	.st6{fill:#FFFFFF;}
</style>
<rect x="74.1" y="151.7" width="146.5" height="151"/>
<g>
	<defs>
		<rect id="SVGID_1_" width="288" height="320.2"/>
	</defs>
	<clipPath id="SVGID_2_">
		<use xlink:href="#SVGID_1_" style="overflow:visible;"/>
	</clipPath>
	<rect x="70.8" y="151.7" class="st0" width="146.5" height="151"/>
	<path class="st1" d="M260.5,116.5C260.5,52.2,208.3,0,144,0C79.7,0,27.5,52.2,27.5,116.5c0,27.8,9.7,53.3,26,73.3h-0.2l1.1,1.2   c3.1,3.8,6.5,7.3,10.1,10.7l79,83.5l78.3-81.9c4.4-4,8.5-8.3,12.3-12.8l0.5-0.5h-0.1C250.8,169.8,260.5,144.3,260.5,116.5"/>
</g>
<g>
	<path d="M123.4,216.4l5.7-6c1.3-1.4,2.1-2.7,2.1-4.1c0-1.6-0.9-2.6-2.6-2.6c-1.7,0-2.7,0.9-3,3.2h-1.6c0.2-2.8,1.9-4.6,4.6-4.6   c2.6,0,4.3,1.6,4.3,4c0,1.8-1.1,3.5-2.9,5.2l-3.9,3.8h6.9v1.4h-9.6V216.4z"/>
	<path d="M134.7,210.1v-0.8c0-4.2,2.1-6.9,5.6-6.9c3.5,0,5.6,2.8,5.6,6.9v0.8c0,4.2-2,7-5.5,7C136.9,217,134.7,214.2,134.7,210.1z    M144.1,210v-0.8c0-3.3-1.4-5.5-3.8-5.5c-2.4,0-3.9,2-3.9,5.5v0.8c0,3.6,1.5,5.5,3.9,5.5C142.9,215.5,144.1,213.6,144.1,210z"/>
	<path d="M150.6,204.2l-3.2,2.3v-1.6l3.3-2.4h1.6v14.3h-1.7V204.2z"/>
	<path d="M162.4,203.9h-7.3v-1.4h9.4v0.2l-5.4,14.1h-1.8L162.4,203.9z"/>
</g>
<g>
	<defs>
		<rect id="SVGID_3_" x="54.7" y="66.1" width="178.5" height="72"/>
	</defs>
	<clipPath id="SVGID_4_">
		<use xlink:href="#SVGID_3_" style="overflow:visible;"/>
	</clipPath>
	<path class="st2" d="M116.5,50.2v-0.2c0.4-1.2,0.6-3.1-0.1-6.9l-0.7-3.4h-7.2c-0.2,1.1-0.4,2.2-0.7,3.4c-0.7,3.7-0.6,5.7-0.1,6.9   v0.2h-8c0.2-2.2,0.9-6.5,4.2-18.9c2.5-9.4,2.9-14.5,2.7-17.9h12.7c0.1,2.2,1.1,8.3,2.8,15.6l3.3,14.1c0.9,3.7,1.3,5.7,2.3,6.9v0.2   H116.5z M112.4,21.9c-0.5,2.8-1.5,6.7-2.5,11.4h4.6L112.4,21.9z M148.1,20.6l-5.7,29.7h-11.1l-6.1-29.7c-0.8-3.7-1.1-5.7-2-6.9   v-0.2h11.4v0.2c-0.5,1.2-0.7,3.3-0.1,6.9l3.3,20.2l3.1-20.2c0.6-3.7,0.4-5.7-0.1-6.9v-0.2h9.4v0.2   C149.2,14.8,148.8,16.9,148.1,20.6 M91.9,50.2c-1.1-1.7-1.5-3.3-2-8.9c-0.4-4.7-1.3-5.2-3-5.2h-0.2v7c0,3.7,0.2,5.7,0.9,6.9v0.2   h-10v-0.2c0.7-1.2,0.9-3.3,0.9-6.9V20.6c0-3.7-0.2-5.7-0.9-6.9v-0.2h8.8c5.2,0,8,0.7,10.3,2.9c1.4,1.4,2.4,3.6,2.4,7.1   c0,4.3-1.9,7.1-4.4,9.4c2.8,1.3,3.8,3.1,4.1,8.9c0.3,5.8,0.4,6.8,1.7,8.3v0.2H91.9z M87.5,19.5c-0.3,0-0.6,0-0.8,0v10.1h0.5   c2.2,0,3.3-2.2,3.3-5.9C90.5,20.6,89.3,19.5,87.5,19.5 M76.3,21.5c-1.4-0.8-2.7-1.3-6-1.3h-0.3v22.8c0,3.7,0.2,5.7,0.9,6.9v0.2   H60.4v-0.2c0.7-1.2,0.9-3.3,0.9-6.9V20.3h-0.3c-3.3,0-4.6,0.5-6,1.3h-0.2v-8.1h21.7v8.1H76.3z M150.4,50.2v-0.2   c0.7-1.2,0.9-3.3,0.9-6.9V20.6c0-3.7-0.2-5.7-0.9-6.9v-0.2h18.3v7.8h-0.2c-1.6-0.8-3.8-1.1-7.1-1.1h-1.6v7.7h1.3   c3.3,0,5.5-0.2,7.1-0.8h0.2v8.3h-0.2c-1.6-0.6-3.8-0.8-7.1-0.8h-1.3v8.8h2.1c3.3,0,5.5-0.3,7.1-1.1h0.2v7.8H150.4z M170.7,50.2   v-0.2c0.7-1.2,0.9-3.3,0.9-6.9V20.6c0-3.7-0.2-5.7-0.9-6.9v-0.2h10.5v0.2c-0.7,1.2-0.9,3.3-0.9,6.9v22.6h1.3c3.3,0,5.5-0.3,7.1-1.1   h0.2v8.2H170.7z M224.6,50.2c-1.1-1.7-1.5-3.3-2-8.9c-0.4-4.7-1.3-5.2-3-5.2h-0.2v7c0,3.7,0.2,5.7,0.9,6.9v0.2h-10v-0.2   c0.7-1.2,0.9-3.3,0.9-6.9V20.6c0-3.7-0.2-5.7-0.9-6.9v-0.2h8.8c5.2,0,8,0.7,10.3,2.9c1.4,1.4,2.4,3.6,2.4,7.1   c0,4.3-1.9,7.1-4.4,9.4c2.8,1.3,3.8,3.1,4.1,8.9c0.3,5.8,0.5,6.8,1.7,8.3v0.2H224.6z M220.2,19.5c-0.3,0-0.6,0-0.8,0v10.1h0.5   c2.2,0,3.3-2.2,3.3-5.9C223.2,20.6,222,19.5,220.2,19.5 M190,50.2v-0.2c0.7-1.2,0.9-3.3,0.9-6.9V20.6c0-3.7-0.2-5.7-0.9-6.9v-0.2   h18.3v7.8h-0.2c-1.6-0.8-3.8-1.1-7.1-1.1h-1.6v7.7h1.3c3.3,0,5.5-0.2,7.1-0.8h0.2v8.3h-0.2c-1.6-0.6-3.8-0.8-7.1-0.8h-1.3v8.8h2.1   c3.3,0,5.5-0.3,7.1-1.1h0.2v7.8H190z"/>
	<path class="st3" d="M54.7-15.9h17.5V9.3H54.7V-15.9z M69.7-13.3H57.3V6.7h12.5V-13.3z"/>
	<path class="st4" d="M83.9-4.6h-1.1c-1.4-2-2.8-4-4.2-6.3h0v6.3h-1.2v-8.7h1.1c1.4,2,2.8,4,4.2,6.2h0v-6.2h1.2V-4.6z"/>
	<path class="st4" d="M86.8-8c0.3-1.2,0.7-2.2,1-3.6h0c0.4,1.3,0.7,2.4,1,3.6H86.8z M87.3-13.3l-3,8.7h1.3L86.4-7H89l0.7,2.4h1.7   l-2.8-8.7H87.3z"/>
	<polygon class="st4" points="92.8,-4.6 92.8,-12.2 90.5,-12.2 90.5,-13.3 96.6,-13.3 96.6,-12.2 94.3,-12.2 94.3,-4.6  "/>
	<rect x="97.1" y="-13.3" class="st4" width="1.5" height="8.7"/>
	<path class="st4" d="M103.2-5.7c-1.6,0-2.1-1.7-2.1-3.4c0-1.6,0.6-3.1,2.1-3.1c1.5,0,2.1,1.5,2.1,3.1   C105.3-7.4,104.7-5.7,103.2-5.7 M103.2-4.4c2.3,0,3.7-2,3.7-4.6c0-2.4-1.6-4.4-3.7-4.4c-2.1,0-3.7,1.9-3.7,4.4   C99.5-6.5,100.9-4.4,103.2-4.4"/>
	<path class="st4" d="M114.4-4.6h-1.1c-1.4-2-2.8-4-4.2-6.3h0v6.3h-1.2v-8.7h1.1c1.4,2,2.8,4,4.2,6.2h0v-6.2h1.2V-4.6z"/>
	<path class="st4" d="M117.2-8c0.3-1.2,0.7-2.2,1-3.6h0c0.4,1.3,0.7,2.4,1,3.6H117.2z M117.8-13.3l-3,8.7h1.3l0.8-2.4h2.6l0.7,2.4   h1.7l-2.8-8.7H117.8z"/>
	<polygon class="st4" points="122.3,-13.3 123.7,-13.3 123.7,-5.8 126.7,-5.8 126.7,-4.6 122.3,-4.6  "/>
	<path class="st4" d="M83,2.7v3.6c-0.8,0.3-1.6,0.5-2.5,0.5c-2.6,0-4.2-2-4.2-4.6c0-2.4,1.6-4.5,4.2-4.5c0.8,0,1.6,0.3,2.1,0.7   l-0.5,1c-0.4-0.2-1-0.5-1.6-0.5c-1.6,0-2.7,1.3-2.7,3.2c0,2.1,1.2,3.3,2.5,3.3c0.4,0,0.7-0.1,1.1-0.2V2.7H83z"/>
	<polygon class="st4" points="88.4,-0.8 85.9,-0.8 85.9,1.6 88.3,1.6 88.3,2.7 85.9,2.7 85.9,5.6 88.8,5.6 88.8,6.7 84.4,6.7    84.4,-2 88.4,-2  "/>
	<path class="st4" d="M93,5.6c-1.6,0-2.1-1.7-2.1-3.4c0-1.6,0.6-3.1,2.1-3.1c1.5,0,2.1,1.5,2.1,3.1C95.1,3.9,94.5,5.6,93,5.6    M93,6.9c2.3,0,3.7-2,3.7-4.6c0-2.4-1.6-4.4-3.7-4.4c-2.1,0-3.7,2-3.7,4.4C89.3,4.8,90.7,6.9,93,6.9"/>
	<path class="st4" d="M103.9,2.7v3.6c-0.8,0.3-1.6,0.5-2.5,0.5c-2.6,0-4.2-2-4.2-4.6c0-2.4,1.6-4.5,4.2-4.5c0.8,0,1.6,0.3,2.1,0.7   l-0.5,1c-0.4-0.2-1-0.5-1.6-0.5c-1.6,0-2.7,1.3-2.7,3.2c0,2.1,1.2,3.3,2.5,3.3c0.4,0,0.7-0.1,1-0.2V2.7H103.9z"/>
	<path class="st4" d="M106.8-0.8h0.7c0.9,0,1.4,0.5,1.4,1.4c0,1.2-0.7,1.7-1.4,1.7c-0.1,0-0.5,0-0.6,0V-0.8z M110.6,6.7l-1.8-3.6   c1-0.5,1.5-1.5,1.5-2.6c0-1.7-1-2.5-2.7-2.5h-2.3v8.7h1.5V3.4h0.6h0l1.4,3.3H110.6z"/>
	<path class="st4" d="M113,3.3c0.4-1.1,0.7-2.2,1-3.6h0c0.3,1.3,0.7,2.4,1,3.6H113z M113.6-2l-3,8.7h1.3l0.8-2.4h2.6l0.7,2.4h1.7   L114.9-2H113.6z"/>
	<path class="st4" d="M119.6,6.7h-1.5V-2h2.3c1.7,0,2.7,0.8,2.7,2.5c0,1.5-1.1,2.9-2.9,2.9h-0.7V2.3c0.1,0,0.5,0,0.7,0   c0.7,0,1.4-0.6,1.4-1.7c0-0.9-0.5-1.4-1.4-1.4h-0.7V6.7z"/>
	<polygon class="st4" points="130.1,6.7 128.6,6.7 128.6,2.5 125.5,2.5 125.5,6.7 124,6.7 124,-2 125.5,-2 125.5,1.3 128.6,1.3    128.6,-2 130.1,-2  "/>
	<rect x="131.6" y="-2" class="st4" width="1.5" height="8.7"/>
	<path class="st4" d="M139.8-0.4c-0.4-0.2-1-0.5-1.5-0.5c-1.5,0-2.6,1.3-2.6,3.2c0,2.1,1.2,3.3,2.7,3.3c0.6,0,1.1-0.2,1.5-0.4   l0.4,1.1c-0.5,0.3-1.2,0.6-2,0.6c-2.6,0-4.2-2-4.2-4.6c0-2.4,1.6-4.5,4.2-4.5c0.8,0,1.5,0.3,2,0.7L139.8-0.4z"/>
	<path class="st4" d="M116.5,138.1V138c0.4-1.2,0.6-3.1-0.1-6.9l-0.7-3.4h-7.1c-0.2,1.1-0.5,2.2-0.7,3.4c-0.7,3.7-0.6,5.7-0.1,6.9   v0.2h-8c0.2-2.2,0.9-6.5,4.2-18.9c2.5-9.4,2.9-14.5,2.7-17.9h12.7c0.1,2.2,1.1,8.3,2.8,15.6l3.3,14.1c0.9,3.7,1.3,5.7,2.3,6.9v0.2   H116.5z M112.5,109.8c-0.5,2.8-1.5,6.7-2.5,11.4h4.6L112.5,109.8z M148.2,108.5l-5.7,29.7h-11.1l-6.1-29.7c-0.8-3.7-1.1-5.7-2-6.9   v-0.2h11.4v0.2c-0.5,1.2-0.7,3.3-0.1,6.9l3.3,20.2l3.1-20.2c0.6-3.7,0.4-5.7-0.1-6.9v-0.2h9.4v0.2   C149.3,102.8,148.9,104.8,148.2,108.5 M91.9,138.1c-1.1-1.7-1.5-3.3-2-8.9c-0.4-4.7-1.3-5.2-3-5.2h-0.2v7c0,3.7,0.2,5.7,0.9,6.9   v0.2h-10V138c0.7-1.2,0.9-3.3,0.9-6.9v-22.6c0-3.7-0.2-5.7-0.9-6.9v-0.2h8.8c5.2,0,8,0.7,10.3,2.9c1.4,1.4,2.4,3.6,2.4,7.1   c0,4.3-1.9,7.1-4.4,9.4c2.8,1.3,3.8,3.1,4.1,8.9c0.3,5.8,0.4,6.8,1.7,8.3v0.2H91.9z M87.6,107.5c-0.3,0-0.6,0-0.8,0v10.1h0.5   c2.2,0,3.3-2.2,3.3-5.9C90.5,108.5,89.4,107.5,87.6,107.5 M76.3,109.5c-1.4-0.8-2.7-1.3-6-1.3H70V131c0,3.7,0.2,5.7,0.9,6.9v0.2   H60.4V138c0.7-1.2,0.9-3.3,0.9-6.9v-22.8H61c-3.3,0-4.6,0.4-6,1.3h-0.2v-8.1h21.7v8.1H76.3z M150.4,138.1V138   c0.7-1.2,0.9-3.3,0.9-6.9v-22.6c0-3.7-0.2-5.7-0.9-6.9v-0.2h18.3v7.8h-0.2c-1.6-0.8-3.8-1.1-7.1-1.1h-1.6v7.7h1.3   c3.3,0,5.5-0.2,7.1-0.8h0.2v8.3h-0.2c-1.6-0.6-3.8-0.8-7.1-0.8h-1.3v8.8h2.1c3.3,0,5.5-0.3,7.1-1.1h0.2v7.8H150.4z M170.8,138.1   V138c0.7-1.2,0.9-3.3,0.9-6.9v-22.6c0-3.7-0.2-5.7-0.9-6.9v-0.2h10.5v0.2c-0.7,1.2-0.9,3.3-0.9,6.9V131h1.3c3.3,0,5.5-0.3,7.1-1.1   h0.2v8.2H170.8z M224.6,138.1c-1.1-1.7-1.5-3.3-2-8.9c-0.4-4.7-1.3-5.2-3-5.2h-0.2v7c0,3.7,0.2,5.7,0.9,6.9v0.2h-10V138   c0.7-1.2,0.9-3.3,0.9-6.9v-22.6c0-3.7-0.2-5.7-0.9-6.9v-0.2h8.8c5.2,0,8,0.7,10.3,2.9c1.4,1.4,2.4,3.6,2.4,7.1   c0,4.3-1.9,7.1-4.4,9.4c2.8,1.3,3.8,3.1,4.1,8.9c0.3,5.8,0.4,6.8,1.7,8.3v0.2H224.6z M220.3,107.5c-0.3,0-0.6,0-0.8,0v10.1h0.5   c2.2,0,3.3-2.2,3.3-5.9C223.2,108.5,222.1,107.5,220.3,107.5 M190,138.1V138c0.7-1.2,0.9-3.3,0.9-6.9v-22.6c0-3.7-0.2-5.7-0.9-6.9   v-0.2h18.3v7.8h-0.2c-1.6-0.8-3.8-1.1-7.1-1.1h-1.6v7.7h1.3c3.3,0,5.5-0.2,7.1-0.8h0.2v8.3h-0.2c-1.6-0.6-3.8-0.8-7.1-0.8h-1.3v8.8   h2.1c3.3,0,5.5-0.3,7.1-1.1h0.2v7.8H190z"/>
	<path class="st3" d="M54.8,72.1h17.5v25.1H54.8V72.1z M69.8,74.6H57.3v20.1h12.5V74.6z"/>
	<path class="st5" d="M84,83.3h-1.1c-1.4-2-2.8-4-4.2-6.3h0v6.3h-1.2v-8.7h1.1c1.4,2,2.8,4,4.2,6.2h0v-6.2H84V83.3z"/>
	<path class="st5" d="M86.8,79.9c0.3-1.2,0.7-2.2,1-3.6h0c0.4,1.4,0.7,2.4,1,3.6H86.8z M87.4,74.6l-3,8.7h1.3l0.8-2.4h2.6l0.7,2.4   h1.7l-2.8-8.7H87.4z"/>
	<polygon class="st5" points="92.8,83.3 92.8,75.8 90.5,75.8 90.5,74.6 96.6,74.6 96.6,75.8 94.3,75.8 94.3,83.3  "/>
	<rect x="97.1" y="74.6" class="st5" width="1.5" height="8.7"/>
	<path class="st5" d="M103.2,82.2c-1.6,0-2.1-1.7-2.1-3.4c0-1.6,0.6-3.1,2.1-3.1c1.5,0,2.1,1.5,2.1,3.1   C105.3,80.5,104.8,82.2,103.2,82.2 M103.2,83.5c2.3,0,3.7-2,3.7-4.6c0-2.4-1.6-4.4-3.7-4.4c-2.1,0-3.7,1.9-3.7,4.4   C99.5,81.5,100.9,83.5,103.2,83.5"/>
	<path class="st5" d="M114.4,83.3h-1.1c-1.4-2-2.8-4-4.2-6.3h0v6.3h-1.2v-8.7h1.1c1.4,2,2.8,4,4.2,6.2h0v-6.2h1.2V83.3z"/>
	<path class="st5" d="M117.2,79.9c0.4-1.2,0.7-2.2,1-3.6h0c0.3,1.4,0.7,2.4,1,3.6H117.2z M117.8,74.6l-3,8.7h1.3l0.8-2.4h2.6   l0.7,2.4h1.7l-2.8-8.7H117.8z"/>
	<polygon class="st5" points="122.3,74.6 123.8,74.6 123.8,82.2 126.7,82.2 126.7,83.3 122.3,83.3  "/>
	<path class="st5" d="M83,90.7v3.6c-0.8,0.3-1.6,0.5-2.5,0.5c-2.6,0-4.2-2-4.2-4.6c0-2.4,1.6-4.5,4.2-4.5c0.8,0,1.6,0.3,2.1,0.7   l-0.5,1c-0.4-0.2-1-0.5-1.6-0.5C79,87,78,88.3,78,90.3c0,2.1,1.2,3.3,2.5,3.3c0.4,0,0.7,0,1.1-0.2v-2.7H83z"/>
	<polygon class="st5" points="88.4,87.1 85.9,87.1 85.9,89.5 88.3,89.5 88.3,90.7 85.9,90.7 85.9,93.5 88.8,93.5 88.8,94.7    84.4,94.7 84.4,85.9 88.4,85.9  "/>
	<path class="st5" d="M93,93.6c-1.6,0-2.1-1.7-2.1-3.4c0-1.6,0.6-3.1,2.1-3.1c1.5,0,2.1,1.5,2.1,3.1C95.1,91.8,94.6,93.6,93,93.6    M93,94.8c2.3,0,3.7-2,3.7-4.6c0-2.4-1.6-4.4-3.7-4.4c-2.1,0-3.7,2-3.7,4.4C89.3,92.8,90.7,94.8,93,94.8"/>
	<path class="st5" d="M103.9,90.7v3.6c-0.8,0.3-1.6,0.5-2.5,0.5c-2.6,0-4.2-2-4.2-4.6c0-2.4,1.6-4.5,4.2-4.5c0.8,0,1.6,0.3,2.1,0.7   l-0.5,1c-0.4-0.2-1-0.5-1.6-0.5c-1.6,0-2.7,1.3-2.7,3.2c0,2.1,1.2,3.3,2.5,3.3c0.4,0,0.7,0,1-0.2v-2.7H103.9z"/>
	<path class="st5" d="M106.8,87.1h0.7c0.9,0,1.4,0.5,1.4,1.4c0,1.2-0.7,1.7-1.4,1.7c-0.2,0-0.5,0-0.6,0V87.1z M110.6,94.7l-1.8-3.6   c1-0.5,1.5-1.5,1.5-2.6c0-1.7-1-2.5-2.7-2.5h-2.3v8.7h1.5v-3.3h0.6h0l1.4,3.3H110.6z"/>
	<path class="st5" d="M113.1,91.2c0.4-1.1,0.7-2.2,1-3.6h0c0.4,1.3,0.7,2.4,1,3.6H113.1z M113.7,85.9l-3,8.7h1.3l0.8-2.4h2.6   l0.7,2.4h1.7l-2.8-8.7H113.7z"/>
	<path class="st5" d="M119.7,94.7h-1.5v-8.7h2.3c1.7,0,2.7,0.8,2.7,2.5c0,1.5-1.1,2.9-2.9,2.9h-0.7v-1.1c0.1,0,0.5,0,0.7,0   c0.7,0,1.4-0.6,1.4-1.7c0-0.9-0.5-1.4-1.4-1.4h-0.7V94.7z"/>
	<polygon class="st5" points="130.2,94.7 128.7,94.7 128.7,90.4 125.5,90.4 125.5,94.7 124.1,94.7 124.1,85.9 125.5,85.9    125.5,89.3 128.7,89.3 128.7,85.9 130.2,85.9  "/>
	<rect x="131.6" y="85.9" class="st5" width="1.5" height="8.7"/>
	<path class="st5" d="M139.8,87.5c-0.4-0.2-1-0.5-1.5-0.5c-1.5,0-2.6,1.3-2.6,3.2c0,2.1,1.2,3.3,2.7,3.3c0.6,0,1.1-0.2,1.5-0.4   l0.4,1.1c-0.5,0.3-1.2,0.6-2,0.6c-2.6,0-4.2-2-4.2-4.6c0-2.4,1.6-4.5,4.2-4.5c0.8,0,1.5,0.3,2,0.7L139.8,87.5z"/>
</g>
<polygon points="0,153 0,153 14.2,170.5 0,188 0,188 288,188 288,187.8 273.9,170.5 288,153.2 288,153 "/>
<g>
	<path class="st6" d="M25.1,161.7h7.7c4.1,0,5.8,1.8,5.8,4.5v0.1c0,1.9-1,3.2-2.9,3.7c2.1,0.4,3.4,1.6,3.4,4v0.1   c0,3.1-2,4.8-6.2,4.8h-7.7V161.7z M31.7,168.6c1.5,0,2.1-0.5,2.1-1.8v-0.1c0-1.2-0.6-1.7-2.1-1.7h-1.9v3.6H31.7z M31.9,175.6   c1.6,0,2.3-0.7,2.3-2v-0.1c0-1.3-0.7-2-2.4-2h-1.9v4.1H31.9z"/>
	<path class="st6" d="M41.1,161.7h11.9v3.8h-7v3h5.5v3.5H46v3.1h7.3v3.8H41.1V161.7z"/>
	<path class="st6" d="M54.3,173.5H59c0.1,1.2,0.7,2.2,2.7,2.2c1.4,0,2.2-0.7,2.2-1.7c0-1.1-0.6-1.3-2.7-1.7c-4.8-0.6-6.5-2-6.5-5.5   c0-3.1,2.5-5.4,6.6-5.4c4.1,0,6.5,1.7,6.8,5.4h-4.6c-0.2-1.2-0.9-1.8-2.2-1.8c-1.3,0-2,0.6-2,1.5c0,1,0.5,1.4,2.7,1.7   c4.3,0.5,6.6,1.6,6.6,5.3c0,3.1-2.5,5.7-6.9,5.7C56.9,179.2,54.4,177.2,54.3,173.5z"/>
	<path class="st6" d="M73.6,165.5h-4.4v-3.8H83v3.8h-4.4v13.4h-4.9V165.5z"/>
	<path class="st6" d="M88.2,170.4v-0.2c0-5.2,3.9-8.7,9.1-8.7c5.2,0,9.1,3.3,9.1,8.6v0.2c0,5.3-3.6,8.9-9.2,8.9   C91.7,179.2,88.2,175.6,88.2,170.4z M101.3,170.4v-0.2c0-3-1.5-4.8-4-4.8s-3.9,1.8-3.9,4.9v0.2c0,3.1,1.6,4.9,4,4.9   C99.7,175.3,101.3,173.5,101.3,170.4z"/>
	<path class="st6" d="M108.4,161.7H120v3.8h-6.6v3.6h5.3v3.6h-5.3v6.1h-4.9V161.7z"/>
	<path class="st6" d="M129.6,165.5h-4.4v-3.8H139v3.8h-4.4v13.4h-4.9V165.5z"/>
	<path class="st6" d="M140.3,161.7h4.9v6.6h5.6v-6.6h4.9v17.2h-4.9v-6.8h-5.6v6.8h-4.9V161.7z"/>
	<path class="st6" d="M158.4,161.7h11.9v3.8h-7v3h5.5v3.5h-5.5v3.1h7.3v3.8h-12.2V161.7z"/>
	<path class="st6" d="M175.8,161.7h5l2.2,10.7l2.3-10.7h4.4l2.5,10.8l2.3-10.8h4.6l-4,17.2h-5.1l-2.6-10.9l-2.7,10.9h-4.8   L175.8,161.7z"/>
	<path class="st6" d="M199.2,170.4v-0.2c0-5.2,3.9-8.7,9.1-8.7c5.2,0,9.1,3.3,9.1,8.6v0.2c0,5.3-3.6,8.9-9.2,8.9   S199.2,175.6,199.2,170.4z M212.3,170.4v-0.2c0-3-1.5-4.8-4-4.8c-2.4,0-3.9,1.8-3.9,4.9v0.2c0,3.1,1.6,4.9,4,4.9   C210.8,175.3,212.3,173.5,212.3,170.4z"/>
	<path class="st6" d="M219.4,161.7h6.7c4.5,0,7,1.8,7,5.4v0.1c0,2.4-1.3,3.8-3.1,4.5l4.1,7.1H229l-3.5-6.1h-1.2v6.1h-4.9V161.7z    M225.9,169.6c1.7,0,2.5-0.7,2.5-2.1v-0.1c0-1.4-0.9-1.9-2.4-1.9h-1.6v4.1H225.9z"/>
	<path class="st6" d="M235.6,161.7h4.9v13.3h6.5v3.8h-11.4V161.7z"/>
	<path class="st6" d="M248.4,161.7h6.2c6.1,0,9.2,3,9.2,8.4v0.2c0,5.4-3.2,8.6-9.2,8.6h-6.2V161.7z M254.5,175.1   c2.9,0,4.2-1.5,4.2-4.7v-0.2c0-3.3-1.3-4.7-4.3-4.7h-1.1v9.6H254.5z"/>
</g>
</svg>